# Exported from ProBuilder
# http://www.procore3d.com/probuilder
# 11/28/2018 8:11:04 PM

mtllib ./Cone.mtl
o Cone

g Cone
v -0.25 0.5 0
v -0.75 -0.5 0.8660254
v 0.75 -0.5 0
v 0.75 -0.5 0
v -0.75 -0.5 0.8660254
v -0.25 -0.5 0
v -0.25 0.5 0
v -0.7499999 -0.5 -0.8660254
v -0.75 -0.5 0.8660254
v -0.75 -0.5 0.8660254
v -0.7499999 -0.5 -0.8660254
v -0.25 -0.5 0
v -0.25 0.5 0
v 0.75 -0.5 0
v -0.7499999 -0.5 -0.8660254
v 0.75 -0.5 0

vn 0.4472136 0.4472136 0.7745967
vn 0.4472136 0.4472136 0.7745967
vn 0.4472136 0.4472136 0.7745967
vn 0 -0.9999999 0
vn 0 -0.9999999 0
vn 0 -0.9999999 0
vn -0.8944272 0.4472136 -6.155941E-08
vn -0.8944272 0.4472136 -6.155941E-08
vn -0.8944272 0.4472136 -6.155941E-08
vn 0 -1 0
vn 0 -1 0
vn 0 -1 0
vn 0.4472136 0.4472136 -0.7745966
vn 0.4472136 0.4472136 -0.7745966
vn 0.4472136 0.4472136 -0.7745966
vn 0 -1 0

vt 0.2165064 0.5031153
vt 1.082532 -0.6149187
vt -0.6495191 -0.6149187
vt -0.75 0
vt 0.75 0.8660254
vt 0.25 0
vt -1.720638E-08 0.3354102
vt 0.8660254 -0.7826238
vt -0.8660254 -0.7826238
vt 0.75 0.8660254
vt 0.7499999 -0.8660254
vt 0.25 0
vt -0.2165063 0.5031153
vt 0.649519 -0.6149187
vt -1.082532 -0.6149187
vt -0.75 0

g Cone
usemtl Default_Prototype
f 1/1/1 2/2/2 3/3/3
f 4/4/4 5/5/5 6/6/6
f 7/7/7 8/8/8 9/9/9
f 10/10/10 11/11/11 12/12/12
f 13/13/13 14/14/14 15/15/15
f 11/11/11 16/16/16 12/12/12

