# Exported from ProBuilder
# http://www.procore3d.com/probuilder
# 11/28/2018 5:27:35 AM

mtllib ./Pipe.mtl
o Pipe

g Pipe
v 0.375 -0.125 0.6495191
v 0.75 -0.125 0
v 0.375 0.125 0.6495191
v 0.75 0.125 0
v 0.5 -0.125 0
v 0.25 -0.125 0.4330127
v 0.5 0.125 0
v 0.25 0.125 0.4330127
v -0.375 -0.125 0.649519
v 0.375 -0.125 0.6495191
v -0.375 0.125 0.649519
v 0.375 0.125 0.6495191
v 0.25 -0.125 0.4330127
v -0.25 -0.125 0.4330127
v 0.25 0.125 0.4330127
v -0.25 0.125 0.4330127
v -0.75 -0.125 -5.960464E-08
v -0.375 -0.125 0.649519
v -0.75 0.125 -5.960464E-08
v -0.375 0.125 0.649519
v -0.25 -0.125 0.4330127
v -0.5 -0.125 -5.960464E-08
v -0.25 0.125 0.4330127
v -0.5 0.125 -5.960464E-08
v -0.3749999 -0.125 -0.6495191
v -0.75 -0.125 -5.960464E-08
v -0.3749999 0.125 -0.6495191
v -0.75 0.125 -5.960464E-08
v -0.5 -0.125 -5.960464E-08
v -0.2499999 -0.125 -0.4330127
v -0.5 0.125 -5.960464E-08
v -0.2499999 0.125 -0.4330127
v 0.375 -0.125 -0.6495191
v -0.3749999 -0.125 -0.6495191
v 0.375 0.125 -0.6495191
v -0.3749999 0.125 -0.6495191
v -0.2499999 -0.125 -0.4330127
v 0.25 -0.125 -0.4330127
v -0.2499999 0.125 -0.4330127
v 0.25 0.125 -0.4330127
v 0.75 -0.125 0
v 0.375 -0.125 -0.6495191
v 0.75 0.125 0
v 0.375 0.125 -0.6495191
v 0.25 -0.125 -0.4330127
v 0.5 -0.125 0
v 0.25 0.125 -0.4330127
v 0.5 0.125 0
v 0.75 -0.125 0
v 0.375 -0.125 0.6495191
v 0.5 -0.125 0
v 0.25 -0.125 0.4330127
v 0.375 0.125 0.6495191
v 0.75 0.125 0
v 0.25 0.125 0.4330127
v 0.5 0.125 0
v 0.375 -0.125 0.6495191
v -0.375 -0.125 0.649519
v 0.25 -0.125 0.4330127
v -0.25 -0.125 0.4330127
v -0.375 0.125 0.649519
v 0.375 0.125 0.6495191
v -0.25 0.125 0.4330127
v 0.25 0.125 0.4330127
v -0.375 -0.125 0.649519
v -0.75 -0.125 -5.960464E-08
v -0.25 -0.125 0.4330127
v -0.5 -0.125 -5.960464E-08
v -0.75 0.125 -5.960464E-08
v -0.375 0.125 0.649519
v -0.5 0.125 -5.960464E-08
v -0.25 0.125 0.4330127
v -0.75 -0.125 -5.960464E-08
v -0.3749999 -0.125 -0.6495191
v -0.5 -0.125 -5.960464E-08
v -0.2499999 -0.125 -0.4330127
v -0.3749999 0.125 -0.6495191
v -0.75 0.125 -5.960464E-08
v -0.2499999 0.125 -0.4330127
v -0.5 0.125 -5.960464E-08
v -0.3749999 -0.125 -0.6495191
v 0.375 -0.125 -0.6495191
v -0.2499999 -0.125 -0.4330127
v 0.25 -0.125 -0.4330127
v 0.375 0.125 -0.6495191
v -0.3749999 0.125 -0.6495191
v 0.25 0.125 -0.4330127
v -0.2499999 0.125 -0.4330127
v 0.375 -0.125 -0.6495191
v 0.75 -0.125 0
v 0.25 -0.125 -0.4330127
v 0.5 -0.125 0
v 0.75 0.125 0
v 0.375 0.125 -0.6495191
v 0.5 0.125 0
v 0.25 0.125 -0.4330127

vn 0.8660254 0 0.5
vn 0.8660254 0 0.5
vn 0.8660254 0 0.5
vn 0.8660254 0 0.5
vn -0.8660254 0 -0.5
vn -0.8660254 0 -0.5
vn -0.8660254 0 -0.5
vn -0.8660254 0 -0.5
vn -7.947286E-08 0 1
vn -7.947286E-08 0 1
vn -7.947286E-08 0 1
vn -7.947286E-08 0 1
vn 5.960464E-08 0 -1
vn 5.960464E-08 0 -1
vn 5.960464E-08 0 -1
vn 5.960464E-08 0 -1
vn -0.8660254 0 0.5
vn -0.8660254 0 0.5
vn -0.8660254 0 0.5
vn -0.8660254 0 0.5
vn 0.8660254 0 -0.4999999
vn 0.8660254 0 -0.4999999
vn 0.8660254 0 -0.4999999
vn 0.8660254 0 -0.4999999
vn -0.8660253 0 -0.5000001
vn -0.8660253 0 -0.5000001
vn -0.8660253 0 -0.5000001
vn -0.8660253 0 -0.5000001
vn 0.8660253 0 0.5000001
vn 0.8660253 0 0.5000001
vn 0.8660253 0 0.5000001
vn 0.8660253 0 0.5000001
vn 0 0 -0.9999999
vn 0 0 -0.9999999
vn 0 0 -0.9999999
vn 0 0 -0.9999999
vn 0 0 1
vn 0 0 1
vn 0 0 1
vn 0 0 1
vn 0.8660254 0 -0.5
vn 0.8660254 0 -0.5
vn 0.8660254 0 -0.5
vn 0.8660254 0 -0.5
vn -0.8660254 0 0.5
vn -0.8660254 0 0.5
vn -0.8660254 0 0.5
vn -0.8660254 0 0.5
vn 0 -0.9999999 0
vn 0 -1 0
vn 0 -1 0
vn 0 -0.9999999 0
vn 0 0.9999999 0
vn 0 1 0
vn 0 1 0
vn 0 0.9999999 0
vn 0 -0.9999999 0
vn 0 -1 0
vn 0 -1 0
vn 0 -0.9999999 0
vn 0 0.9999999 0
vn 0 1 0
vn 0 0.9999999 0
vn 0 0.9999999 0
vn 0 -0.9999999 0
vn 0 -1 0
vn 0 -1 0
vn 0 -0.9999999 0
vn 0 0.9999999 0
vn 0 0.9999999 0
vn 0 1 0
vn 0 0.9999999 0
vn 0 -1 0
vn 0 -1 0
vn 0 -1 0
vn 0 -1 0
vn 0 1 0
vn 0 1 0
vn 0 1 0
vn 0 1 0
vn 0 -1 0
vn 0 -1 0
vn 0 -1 0
vn 0 -1 0
vn 0 1 0
vn 0 1 0
vn 0 0.9999999 0
vn 0 1 0
vn 0 -0.9999999 0
vn 0 -1 0
vn 0 -1 0
vn 0 -0.9999999 0
vn 0 1 0
vn 0 0.9999999 0
vn 0 1 0
vn 0 1 0

vt 0.3750001 -0.125
vt -0.375 -0.125
vt 0.3750001 0.125
vt -0.375 0.125
vt 0.25 -0.125
vt -0.25 -0.125
vt 0.25 0.125
vt -0.25 0.125
vt 0.3749999 -0.125
vt -0.3750001 -0.125
vt 0.3749999 0.125
vt -0.3750001 0.125
vt 0.25 -0.125
vt -0.25 -0.125
vt 0.25 0.125
vt -0.25 0.125
vt 0.3750001 -0.125
vt -0.375 -0.125
vt 0.3750001 0.125
vt -0.375 0.125
vt 0.25 -0.125
vt -0.25 -0.125
vt 0.25 0.125
vt -0.25 0.125
vt 0.375 -0.125
vt -0.375 -0.125
vt 0.375 0.125
vt -0.375 0.125
vt 0.25 -0.125
vt -0.25 -0.125
vt 0.25 0.125
vt -0.25 0.125
vt 0.375 -0.125
vt -0.3749999 -0.125
vt 0.375 0.125
vt -0.3749999 0.125
vt 0.2499999 -0.125
vt -0.25 -0.125
vt 0.2499999 0.125
vt -0.25 0.125
vt 0.375 -0.125
vt -0.375 -0.125
vt 0.375 0.125
vt -0.375 0.125
vt 0.2500001 -0.125
vt -0.25 -0.125
vt 0.2500001 0.125
vt -0.25 0.125
vt -0.75 0
vt -0.375 0.6495191
vt -0.5 0
vt -0.25 0.4330127
vt 0.375 0.6495191
vt 0.75 0
vt 0.25 0.4330127
vt 0.5 0
vt -0.375 0.6495191
vt 0.375 0.649519
vt -0.25 0.4330127
vt 0.25 0.4330127
vt -0.375 0.649519
vt 0.375 0.6495191
vt -0.25 0.4330127
vt 0.25 0.4330127
vt 0.375 0.649519
vt 0.75 -5.960464E-08
vt 0.25 0.4330127
vt 0.5 -5.960464E-08
vt -0.75 -5.960464E-08
vt -0.375 0.649519
vt -0.5 -5.960464E-08
vt -0.25 0.4330127
vt 0.75 -5.960464E-08
vt 0.3749999 -0.6495191
vt 0.5 -5.960464E-08
vt 0.2499999 -0.4330127
vt -0.3749999 -0.6495191
vt -0.75 -5.960464E-08
vt -0.2499999 -0.4330127
vt -0.5 -5.960464E-08
vt 0.3749999 -0.6495191
vt -0.375 -0.6495191
vt 0.2499999 -0.4330127
vt -0.25 -0.4330127
vt 0.375 -0.6495191
vt -0.3749999 -0.6495191
vt 0.25 -0.4330127
vt -0.2499999 -0.4330127
vt -0.375 -0.6495191
vt -0.75 0
vt -0.25 -0.4330127
vt -0.5 0
vt 0.75 0
vt 0.375 -0.6495191
vt 0.5 0
vt 0.25 -0.4330127

g Pipe
usemtl Default_Prototype
f 1/1/1 2/2/2 4/4/4 3/3/3
f 5/5/5 6/6/6 8/8/8 7/7/7
f 9/9/9 10/10/10 12/12/12 11/11/11
f 13/13/13 14/14/14 16/16/16 15/15/15
f 17/17/17 18/18/18 20/20/20 19/19/19
f 21/21/21 22/22/22 24/24/24 23/23/23
f 25/25/25 26/26/26 28/28/28 27/27/27
f 29/29/29 30/30/30 32/32/32 31/31/31
f 33/33/33 34/34/34 36/36/36 35/35/35
f 37/37/37 38/38/38 40/40/40 39/39/39
f 41/41/41 42/42/42 44/44/44 43/43/43
f 45/45/45 46/46/46 48/48/48 47/47/47
f 49/49/49 50/50/50 52/52/52 51/51/51
f 53/53/53 54/54/54 56/56/56 55/55/55
f 57/57/57 58/58/58 60/60/60 59/59/59
f 61/61/61 62/62/62 64/64/64 63/63/63
f 65/65/65 66/66/66 68/68/68 67/67/67
f 69/69/69 70/70/70 72/72/72 71/71/71
f 73/73/73 74/74/74 76/76/76 75/75/75
f 77/77/77 78/78/78 80/80/80 79/79/79
f 81/81/81 82/82/82 84/84/84 83/83/83
f 85/85/85 86/86/86 88/88/88 87/87/87
f 89/89/89 90/90/90 92/92/92 91/91/91
f 93/93/93 94/94/94 96/96/96 95/95/95

g Cylinder
v 0.5 -0.004999995 0
v 0.5 0.005000005 0
v 0.25 -0.004999995 0.4330127
v 0.25 0.005000005 0.4330127
v 0.25 -0.004999995 0.4330127
v 0.25 0.005000005 0.4330127
v -0.25 -0.004999995 0.4330127
v -0.25 0.005000005 0.4330127
v -0.25 -0.004999995 0.4330127
v -0.25 0.005000005 0.4330127
v -0.5 -0.004999995 -4.371139E-08
v -0.5 0.005000005 -4.371139E-08
v -0.5 -0.004999995 -4.371139E-08
v -0.5 0.005000005 -4.371139E-08
v -0.25 -0.004999995 -0.4330127
v -0.25 0.005000005 -0.4330127
v -0.25 -0.004999995 -0.4330127
v -0.25 0.005000005 -0.4330127
v 0.25 -0.004999995 -0.4330127
v 0.25 0.005000005 -0.4330127
v 0.25 -0.004999995 -0.4330127
v 0.25 0.005000005 -0.4330127
v 0.5 -0.004999995 0
v 0.5 0.005000005 0
v 0.5 -0.004999995 0
v 0 -0.004999995 0
v 0.25 -0.004999995 0.4330127
v 0.5 0.005000005 0
v 0 0.005000005 0
v 0.25 0.005000005 0.4330127
v 0.25 -0.004999995 0.4330127
v 0 -0.004999995 0
v -0.25 -0.004999995 0.4330127
v 0.25 0.005000005 0.4330127
v 0 0.005000005 0
v -0.25 0.005000005 0.4330127
v -0.25 -0.004999995 0.4330127
v 0 -0.004999995 0
v -0.5 -0.004999995 -4.371139E-08
v -0.25 0.005000005 0.4330127
v 0 0.005000005 0
v -0.5 0.005000005 -4.371139E-08
v -0.5 -0.004999995 -4.371139E-08
v 0 -0.004999995 0
v -0.25 -0.004999995 -0.4330127
v -0.5 0.005000005 -4.371139E-08
v 0 0.005000005 0
v -0.25 0.005000005 -0.4330127
v -0.25 -0.004999995 -0.4330127
v 0 -0.004999995 0
v 0.25 -0.004999995 -0.4330127
v -0.25 0.005000005 -0.4330127
v 0 0.005000005 0
v 0.25 0.005000005 -0.4330127
v 0.25 -0.004999995 -0.4330127
v 0 -0.004999995 0
v 0.5 -0.004999995 0
v 0.25 0.005000005 -0.4330127
v 0 0.005000005 0
v 0.5 0.005000005 0

vn 0.8660253 0 -5.960464E-08
vn 0.8660253 0 -5.960464E-08
vn 0.4330127 0 0.75
vn 0.4330127 0 0.75
vn 0.4330127 0 0.75
vn 0.4330127 0 0.75
vn -0.4330127 0 0.75
vn -0.4330127 0 0.75
vn -0.4330127 0 0.75
vn -0.4330127 0 0.75
vn -0.8660253 0 -8.940697E-08
vn -0.8660253 0 -8.940697E-08
vn -0.8660253 0 -8.940697E-08
vn -0.8660253 0 -8.940697E-08
vn -0.4330127 0 -0.7500001
vn -0.4330127 0 -0.7500001
vn -0.4330127 0 -0.7500001
vn -0.4330127 0 -0.7500001
vn 0.4330127 0 -0.7500001
vn 0.4330127 0 -0.7500001
vn 0.4330127 0 -0.7500001
vn 0.4330127 0 -0.7500001
vn 0.8660253 0 -5.960464E-08
vn 0.8660253 0 -5.960464E-08
vn 0 -1 0
vn 0 -1 0
vn 0 -1 0
vn 0 1 0
vn 0 1 0
vn 0 1 0
vn 0 -1 0
vn 0 -1 0
vn 0 -1 0
vn 0 1 0
vn 0 1 0
vn 0 1 0
vn 0 -0.9999999 0
vn 0 -0.9999999 0
vn 0 -0.9999999 0
vn 0 1 0
vn 0 1 0
vn 0 1 0
vn 0 -1 0
vn 0 -1 0
vn 0 -1 0
vn 0 1 0
vn 0 1 0
vn 0 1 0
vn 0 -1 0
vn 0 -1 0
vn 0 -1 0
vn 0 1 0
vn 0 1 0
vn 0 1 0
vn 0 -1 0
vn 0 -1 0
vn 0 -1 0
vn 0 1 0
vn 0 1 0
vn 0 1 0

vt -0.25 -0.004999995
vt -0.25 0.005000005
vt 0.2500001 -0.004999995
vt 0.2500001 0.005000005
vt -0.25 -0.004999995
vt -0.25 0.005000005
vt 0.25 -0.004999995
vt 0.25 0.005000005
vt -0.25 -0.004999995
vt -0.25 0.005000005
vt 0.25 -0.004999995
vt 0.25 0.005000005
vt -0.25 -0.004999995
vt -0.25 0.005000005
vt 0.25 -0.004999995
vt 0.25 0.005000005
vt -0.25 -0.004999995
vt -0.25 0.005000005
vt 0.25 -0.004999995
vt 0.25 0.005000005
vt -0.25 -0.004999995
vt -0.25 0.005000005
vt 0.2500001 -0.004999995
vt 0.2500001 0.005000005
vt -0.5 0
vt 0 0
vt -0.25 0.4330127
vt 0.5 0
vt 0 0
vt 0.25 0.4330127
vt -0.25 0.4330127
vt 0 0
vt 0.25 0.4330127
vt 0.25 0.4330127
vt 0 0
vt -0.25 0.4330127
vt 0.25 0.4330127
vt 0 0
vt 0.5 -4.371139E-08
vt -0.25 0.4330127
vt 0 0
vt -0.5 -4.371139E-08
vt 0.5 -4.371139E-08
vt 0 0
vt 0.25 -0.4330127
vt -0.5 -4.371139E-08
vt 0 0
vt -0.25 -0.4330127
vt 0.25 -0.4330127
vt 0 0
vt -0.25 -0.4330127
vt -0.25 -0.4330127
vt 0 0
vt 0.25 -0.4330127
vt -0.25 -0.4330127
vt 0 0
vt -0.5 0
vt 0.25 -0.4330127
vt 0 0
vt 0.5 0

g Cylinder_0
usemtl Default_Prototype
f 97/97/97 98/98/98 100/100/100 99/99/99
f 101/101/101 102/102/102 104/104/104 103/103/103
f 105/105/105 106/106/106 108/108/108 107/107/107
f 109/109/109 110/110/110 112/112/112 111/111/111
f 113/113/113 114/114/114 116/116/116 115/115/115
f 117/117/117 118/118/118 120/120/120 119/119/119

g Cylinder_1
usemtl Default_Prototype
f 123/123/123 122/122/122 121/121/121
f 129/129/129 128/128/128 127/127/127
f 135/135/135 134/134/134 133/133/133
f 141/141/141 140/140/140 139/139/139
f 147/147/147 146/146/146 145/145/145
f 153/153/153 152/152/152 151/151/151
f 124/124/124 125/125/125 126/126/126
f 130/130/130 131/131/131 132/132/132
f 136/136/136 137/137/137 138/138/138
f 142/142/142 143/143/143 144/144/144
f 148/148/148 149/149/149 150/150/150
f 154/154/154 155/155/155 156/156/156

